# xmcd CD database file
#
# Track frame offsets:
#	180
#	3530
#	43196
#	75707
#	106632
#	127198
#	157166
#	182686
#	206918
#
# Disc length: 3236 seconds
#
# Revision: 0
# Processed by: cddbd v1.5.1PL0 Copyright (c) Steve Scherf et al.
# Submitted via: CDex 1.51
#
DISCID=790ca209
DTITLE=Ken Skinner and the jazzmongers! - Maroon
DYEAR=1900
DGENRE=Jazz
TTITLE0=Searchin' for my roots
TTITLE1=Soulfood
TTITLE2=Brother K
TTITLE3=Maroon
TTITLE4=Monarch#
TTITLE5=This ain't Europe
TTITLE6=When you let love rule
TTITLE7=Farewell Europa
TTITLE8=Felonious Punk
EXTD=
EXTT0=
EXTT1=
EXTT2=
EXTT3=
EXTT4=
EXTT5=
EXTT6=
EXTT7=
EXTT8=
PLAYORDER=
